<svg width="21" height="21" viewBox="0 0 21 21" fill="none" xmlns="http://www.w3.org/2000/svg">
<path d="M0.5 10.5C0.5 13.1522 1.55357 15.6957 3.42893 17.5711C5.3043 19.4464 7.84784 20.5 10.5 20.5C13.1522 20.5 15.6957 19.4464 17.5711 17.5711C19.4464 15.6957 20.5 13.1522 20.5 10.5C20.5 7.84784 19.4464 5.3043 17.5711 3.42893C15.6957 1.55357 13.1522 0.5 10.5 0.5C7.84784 0.5 5.3043 1.55357 3.42893 3.42893C1.55357 5.3043 0.5 7.84784 0.5 10.5ZM11.4766 15.5391C11.1094 15.9062 10.5156 15.9062 10.1523 15.5391C9.78906 15.1719 9.78516 14.5781 10.1523 14.2148L12.9258 11.4414L5.8125 11.4375C5.29297 11.4375 4.875 11.0195 4.875 10.5C4.875 9.98047 5.29297 9.5625 5.8125 9.5625H12.9258L10.1523 6.78906C9.78516 6.42188 9.78516 5.82812 10.1523 5.46484C10.5195 5.10156 11.1133 5.09766 11.4766 5.46484L15.8516 9.83594C16.2188 10.2031 16.2188 10.7969 15.8516 11.1602L11.4766 15.5391Z" fill="#F5F6FE"/>
</svg>
