<svg width="21" height="21" viewBox="0 0 21 21" fill="none" xmlns="http://www.w3.org/2000/svg">
<path d="M0.5 10.5C0.5 7.84784 1.55357 5.3043 3.42893 3.42893C5.3043 1.55357 7.84784 0.5 10.5 0.5C13.1522 0.5 15.6957 1.55357 17.5711 3.42893C19.4464 5.3043 20.5 7.84784 20.5 10.5C20.5 13.1522 19.4464 15.6957 17.5711 17.5711C15.6957 19.4464 13.1522 20.5 10.5 20.5C7.84784 20.5 5.3043 19.4464 3.42893 17.5711C1.55357 15.6957 0.5 13.1522 0.5 10.5ZM13 14.25C13 13.1992 12.3555 12.3008 11.4375 11.9336V3.9375C11.4375 3.41797 11.0195 3 10.5 3C9.98047 3 9.5625 3.41797 9.5625 3.9375V11.9336C8.64453 12.3047 8 13.2031 8 14.25C8 15.6289 9.12109 16.75 10.5 16.75C11.8789 16.75 13 15.6289 13 14.25ZM6.125 7.375C6.45652 7.375 6.77446 7.2433 7.00888 7.00888C7.2433 6.77446 7.375 6.45652 7.375 6.125C7.375 5.79348 7.2433 5.47554 7.00888 5.24112C6.77446 5.0067 6.45652 4.875 6.125 4.875C5.79348 4.875 5.47554 5.0067 5.24112 5.24112C5.0067 5.47554 4.875 5.79348 4.875 6.125C4.875 6.45652 5.0067 6.77446 5.24112 7.00888C5.47554 7.2433 5.79348 7.375 6.125 7.375ZM5.5 10.5C5.5 10.1685 5.3683 9.85054 5.13388 9.61612C4.89946 9.3817 4.58152 9.25 4.25 9.25C3.91848 9.25 3.60054 9.3817 3.36612 9.61612C3.1317 9.85054 3 10.1685 3 10.5C3 10.8315 3.1317 11.1495 3.36612 11.3839C3.60054 11.6183 3.91848 11.75 4.25 11.75C4.58152 11.75 4.89946 11.6183 5.13388 11.3839C5.3683 11.1495 5.5 10.8315 5.5 10.5ZM16.75 11.75C17.0815 11.75 17.3995 11.6183 17.6339 11.3839C17.8683 11.1495 18 10.8315 18 10.5C18 10.1685 17.8683 9.85054 17.6339 9.61612C17.3995 9.3817 17.0815 9.25 16.75 9.25C16.4185 9.25 16.1005 9.3817 15.8661 9.61612C15.6317 9.85054 15.5 10.1685 15.5 10.5C15.5 10.8315 15.6317 11.1495 15.8661 11.3839C16.1005 11.6183 16.4185 11.75 16.75 11.75ZM16.125 6.125C16.125 5.79348 15.9933 5.47554 15.7589 5.24112C15.5245 5.0067 15.2065 4.875 14.875 4.875C14.5435 4.875 14.2255 5.0067 13.9911 5.24112C13.7567 5.47554 13.625 5.79348 13.625 6.125C13.625 6.45652 13.7567 6.77446 13.9911 7.00888C14.2255 7.2433 14.5435 7.375 14.875 7.375C15.2065 7.375 15.5245 7.2433 15.7589 7.00888C15.9933 6.77446 16.125 6.45652 16.125 6.125Z" fill="white"/>
</svg>
