<svg width="21" height="21" viewBox="0 0 21 21" fill="none" xmlns="http://www.w3.org/2000/svg">
<path d="M3.57032 0.695313C3.19923 0.40625 2.67188 0.441407 2.33595 0.773438L0.773446 2.33594C0.441415 2.66797 0.406258 3.19531 0.691415 3.57031L3.81641 7.63281C3.9922 7.86328 4.26954 8 4.5586 8H6.67188L10.9297 12.2578C10.3555 13.3906 10.5391 14.8125 11.4883 15.7578L15.8633 20.1328C16.3516 20.6211 17.1445 20.6211 17.6328 20.1328L20.1328 17.6328C20.6211 17.1445 20.6211 16.3516 20.1328 15.8633L15.7578 11.4883C14.8125 10.543 13.3906 10.3555 12.2578 10.9297L8.00001 6.67188V4.5625C8.00001 4.26953 7.86329 3.99609 7.63282 3.82031L3.57032 0.695313ZM1.27735 15.9727C0.781258 16.4688 0.500008 17.1445 0.500008 17.8477C0.500008 19.3125 1.68751 20.5 3.15235 20.5C3.85548 20.5 4.53126 20.2188 5.02735 19.7227L9.62891 15.1211C9.32423 14.3047 9.27735 13.418 9.48829 12.5781L7.07813 10.168L1.27735 15.9727ZM20.5 6.125C20.5 5.71484 20.457 5.31641 20.375 4.93359C20.2813 4.49609 19.7461 4.38281 19.4297 4.69922L16.9336 7.19531C16.8164 7.3125 16.6563 7.37891 16.4922 7.37891H14.25C13.9063 7.37891 13.625 7.09766 13.625 6.75391V4.50781C13.625 4.34375 13.6914 4.18359 13.8086 4.06641L16.3047 1.57031C16.6211 1.25391 16.5078 0.71875 16.0703 0.625C15.6836 0.542969 15.2852 0.5 14.875 0.5C11.7695 0.5 9.25001 3.01953 9.25001 6.125V6.15625L12.582 9.48828C13.9883 9.13281 15.543 9.50781 16.6445 10.6094L17.2578 11.2227C19.1719 10.3242 20.5 8.37891 20.5 6.125ZM2.68751 17.375C2.68751 17.1264 2.78628 16.8879 2.9621 16.7121C3.13791 16.5363 3.37637 16.4375 3.62501 16.4375C3.87365 16.4375 4.11211 16.5363 4.28792 16.7121C4.46374 16.8879 4.56251 17.1264 4.56251 17.375C4.56251 17.6236 4.46374 17.8621 4.28792 18.0379C4.11211 18.2137 3.87365 18.3125 3.62501 18.3125C3.37637 18.3125 3.13791 18.2137 2.9621 18.0379C2.78628 17.8621 2.68751 17.6236 2.68751 17.375Z" fill="#F5F6FE"/>
</svg>
